<svg width="100%" height="100%" viewBox="0 0 40 40" xmlns="http://www.w3.org/2000/svg">
<path d="M 16.4805 22.6455 L 16.474 10.311 C 16.474 10.096 16.54 9.891 16.661 9.739 C 16.781 9.587 16.944 9.502 17.114 9.502 L 22.873 9.502 C 23.043 9.502 23.206 9.587 23.326 9.739 C 23.447 9.891 23.513 10.096 23.513 10.311 L 23.5195 22.6455 L 27.2495 22.6455 C 27.5675 22.6465 27.8515 22.8625 27.9585 23.1865 C 28.0635 23.5105 27.9665 23.8715 27.7175 24.0845 C 25.5185 25.9775 21.7785 29.1965 20.4695 30.3235 C 20.1955 30.5585 19.8045 30.5585 19.5305 30.3235 C 18.2215 29.1965 14.4815 25.9775 12.2825 24.0845 C 12.0335 23.8715 11.9365 23.5105 12.0425 23.1865 C 12.1485 22.8625 12.4325 22.6465 12.7515 22.6455 L 16.4805 22.6455 Z"/>
</svg>